<svg xmlns="http://www.w3.org/2000/svg" buffered-rendering="static" xmlns:xlink="http://www.w3.org/1999/xlink" width="512px" height="512px" viewBox="0 0 512 512">
<desc>
This file was created by http://www.h2.dion.ne.jp/~defghi/img2svg3/img2svg3.htm at Wed Jan 19 2022 00:01:09 GMT+0900 (日本標準時)
</desc>
<defs>
<g id="rgb" style="isolation:isolate;">
<g id="r" style="mix-blend-mode:screen;">
<path d="M255.5 .1c-177.5 0-207.8 .2-212.5 1.5-3 .8-8.4 2.8-12 4.6-4.4 2.1-8.9 5.5-14.1 10.7-5.2 5.2-8.6 9.7-10.7 14.1-1.7 3.6-3.8 9.2-4.7 12.5-1.3 5.3-1.5 30.6-1.5 212.5 0 181.9 .2 207.2 1.5 212.5 .9 3.3 3 8.9 4.7 12.5 2.1 4.4 5.5 8.9 10.7 14.1 5.2 5.2 9.7 8.6 14.1 10.7 3.6 1.7 9.2 3.8 12.5 4.7 5.3 1.3 30.6 1.5 212.5 1.5 181.9 0 207.2-.2 212.5-1.5 3.3-.9 8.9-3 12.5-4.7 4.4-2.1 8.9-5.5 14.1-10.7 5.2-5.2 8.6-9.7 10.7-14.1 1.7-3.6 3.8-9.2 4.7-12.5 1.3-5.3 1.5-30.6 1.5-212.5 0-181.9-.2-207.2-1.5-212.5-.9-3.3-3-8.9-4.7-12.5-2.1-4.4-5.5-8.9-10.7-14.1-5.2-5.2-9.7-8.6-14.1-10.7-3.6-1.7-9.2-3.8-12.5-4.7-5.3-1.3-30.5-1.5-213-1.4Z" style="fill:rgb(255,0,0);"/>
<path d="M255.5 .1c-177.5 0-207.8 .2-212.5 1.5-3 .8-8.4 2.8-12 4.6-4.4 2.1-8.9 5.5-14.1 10.7-5.2 5.2-8.6 9.7-10.7 14.1-1.7 3.6-3.8 9.2-4.7 12.5-1.3 5.3-1.5 30.6-1.5 212.5 0 181.9 .2 207.2 1.5 212.5 .9 3.3 3 8.9 4.7 12.5 2.1 4.4 5.5 8.9 10.7 14.1 5.2 5.2 9.7 8.6 14.1 10.7 3.6 1.7 9.2 3.8 12.5 4.7 5.3 1.3 30.6 1.5 212.5 1.5 181.9 0 207.2-.2 212.5-1.5 3.3-.9 8.9-3 12.5-4.7 4.4-2.1 8.9-5.5 14.1-10.7 5.2-5.2 8.6-9.7 10.7-14.1 1.7-3.6 3.8-9.2 4.7-12.5 1.3-5.1 1.5-17.4 1.4-86.5 0-64.6-.3-79.6-1.2-76-.7 2.5-2.2 5.9-3.3 7.5-1.2 1.7-3.9 4.5-6 6.4-2.2 1.9-5.5 4.1-7.4 4.9-1.9 .8-7.7 1.7-12.8 2.1l-9.3 .6-3.8 10c-2.1 5.5-6.1 14.5-8.9 20-2.7 5.5-7.4 13.8-10.4 18.5-2.9 4.7-8.5 12.8-12.5 18-3.9 5.2-10.9 13.5-15.5 18.4-4.5 4.9-12.8 12.6-18.3 17.2-5.5 4.5-15.2 11.7-21.5 15.9-6.3 4.2-17.6 10.7-25 14.4-7.4 3.7-19.8 8.8-27.5 11.3-7.7 2.5-18.4 5.5-23.7 6.7-5.4 1.2-15.5 2.8-22.5 3.6-7.1 .8-18.9 1.5-26.3 1.5-7.4 0-19.2-.7-26.2-1.5-7.1-.8-17.2-2.4-22.5-3.6-5.4-1.2-16.1-4.2-23.8-6.7-7.7-2.5-20.1-7.6-27.5-11.3-7.4-3.7-18.7-10.2-25-14.4-6.3-4.2-16-11.4-21.5-15.9-5.5-4.6-13.8-12.3-18.3-17.2-4.6-4.9-11.6-13.2-15.5-18.4-4-5.2-9.8-13.8-13.1-19-3.3-5.2-8.6-14.9-11.8-21.5-3.1-6.6-7.7-18.1-10.2-25.5-2.4-7.4-5.4-17.9-6.5-23.2-1.2-5.4-2.8-15.5-3.6-22.5-.8-7.1-1.5-18.9-1.5-26.3 0-7.4 .7-19.2 1.5-26.2 .8-7.1 2.4-17.2 3.6-22.5 1.2-5.4 4.2-16.1 6.7-23.8 2.5-7.7 7.6-20.1 11.3-27.5 3.7-7.4 10.2-18.7 14.4-25 4.2-6.3 11.4-16 15.9-21.5 4.6-5.5 12.3-13.8 17.2-18.3 4.9-4.6 13.2-11.6 18.4-15.5 5.2-4 13.8-9.8 19-13.1 5.2-3.3 14.9-8.6 21.5-11.8 6.6-3.1 18.1-7.7 25.5-10.2 7.4-2.4 17.9-5.4 23.3-6.5 5.3-1.2 15.4-2.8 22.5-3.6 7-.8 18.8-1.5 26.2-1.5 7.4 0 19.2 .7 26.3 1.5 7 .8 17.1 2.4 22.5 3.6 5.3 1.1 15.8 4.1 23.2 6.5 7.4 2.5 18.9 7.1 25.5 10.2 6.6 3.2 16.3 8.5 21.5 11.8 5.2 3.3 13.8 9.1 19 13.1 5.2 3.9 13.5 10.9 18.4 15.5 4.9 4.5 12.6 12.8 17.2 18.3 4.5 5.5 11.5 15 15.6 21 4 6.1 10 16.2 13.2 22.5 3.3 6.3 7.6 16 9.7 21.5l3.8 10 9.3 .6c6.4 .4 10.7 1.2 13.8 2.7 2.5 1.2 6.4 4.1 8.8 6.4 2.7 2.7 5 6.3 6.2 9.8l1.9 5.5 .1-80c0-68.5-.2-80.9-1.5-86-.9-3.3-3-8.9-4.7-12.5-2.1-4.4-5.5-8.9-10.7-14.1-5.2-5.2-9.7-8.6-14.1-10.7-3.6-1.7-9.2-3.8-12.5-4.7-5.3-1.3-30.5-1.5-213-1.4ZM255.5 218.1c-3.3 0-8 .6-10.5 1.3-2.5 .7-5.9 2.1-7.5 3.2-1.7 1-4.5 3-6.3 4.4-1.9 1.4-5 5-7 8-1.9 3-4.2 7.8-4.9 10.5-.7 2.8-1.3 7.5-1.3 10.5 0 3 .6 7.8 1.4 10.5 .7 2.8 2.2 6.4 3.2 8 1 1.7 3 4.5 4.4 6.3 1.4 1.9 5 5 8 7 3 1.9 7.8 4.2 10.5 4.9 2.8 .7 7.5 1.3 10.5 1.3 3 0 7.8-.6 10.5-1.3 2.8-.7 7.5-3 10.5-4.9 3-2 6.6-5.1 8-7 1.4-1.8 3.4-4.6 4.4-6.3 1-1.6 2.5-5.2 3.2-8 .8-2.7 1.4-7.5 1.4-10.5 0-3-.6-7.7-1.3-10.5-.7-2.7-3-7.5-4.9-10.5-2-3-5.1-6.6-7-8-1.8-1.4-4.6-3.4-6.3-4.4-1.6-1-5.2-2.5-8-3.2-2.7-.8-7.7-1.3-11-1.3Z" style="fill:rgb(170,0,0);"/>
<path d="M255.5 .1c-177.5 0-207.8 .2-212.5 1.5-3 .8-8.4 2.8-12 4.6-4.4 2.1-8.9 5.5-14.1 10.7-5.2 5.2-8.6 9.7-10.7 14.1-1.7 3.6-3.8 9.2-4.7 12.5-1.3 5.3-1.5 30.6-1.5 212.5 0 181.9 .2 207.2 1.5 212.5 .9 3.3 3 8.9 4.7 12.5 2.1 4.4 5.5 8.9 10.7 14.1 5.2 5.2 9.7 8.6 14.1 10.7 3.6 1.7 9.2 3.8 12.5 4.7 5.3 1.3 30.6 1.5 212.5 1.5 181.9 0 207.2-.2 212.5-1.5 3.3-.9 8.9-3 12.5-4.7 4.4-2.1 8.9-5.5 14.1-10.7 5.2-5.2 8.6-9.7 10.7-14.1 1.7-3.6 3.8-9.2 4.7-12.5 1.3-5.1 1.5-17.3 1.4-85.5 0-68.8-.2-78.9-1.4-75-.8 2.5-3.1 6.5-5.3 9-2.1 2.5-6.3 5.7-9.3 7.3-4.7 2.4-6.5 2.7-14.4 2.7l-9-.1-2.8 7.8c-1.6 4.3-5.9 14.1-9.7 21.8-3.7 7.7-10 18.7-13.8 24.5-3.9 5.8-11.9 16.4-17.9 23.5-7.6 9.1-14.8 16.3-23.9 23.8-7.1 6-17.6 14-23.4 17.9-5.8 3.8-16.8 10.1-24.5 13.9-7.7 3.8-20.7 9.1-29 11.8-8.2 2.7-19.7 5.8-25.5 7-5.8 1.1-14.5 2.6-19.5 3.2-4.9 .6-16.9 1.2-26.5 1.2-9.6 0-21.5-.6-26.5-1.2-4.9-.6-13.7-2.1-19.5-3.2-5.8-1.2-17.2-4.3-25.5-7-8.2-2.7-21.3-8-29-11.8-7.7-3.8-18.7-10.1-24.5-13.9-5.8-3.9-16.3-11.9-23.5-17.9-9.1-7.6-16.3-14.8-23.8-23.9-6-7.1-14-17.6-17.9-23.4-3.8-5.8-10.1-16.8-13.9-24.5-3.7-7.7-8.9-20.1-11.3-27.5-2.5-7.4-5.6-18.7-7-25-1.3-6.3-3-16-3.7-21.5-.7-5.5-1.2-17.6-1.2-27 0-9.3 .6-21 1.2-26 .6-4.9 2.1-13.7 3.2-19.5 1.2-5.8 4.3-17.2 7-25.5 2.7-8.2 8-21.3 11.8-29 3.8-7.7 10.1-18.7 13.9-24.5 3.9-5.8 11.9-16.3 17.9-23.5 7.6-9.1 14.8-16.3 23.9-23.8 7.1-6 17.6-14 23.4-17.9 5.8-3.8 16.8-10.1 24.5-13.9 7.7-3.7 20.1-8.9 27.5-11.3 7.4-2.5 18.7-5.6 25-7 6.3-1.3 16-3 21.5-3.7 5.5-.6 17.4-1.2 26.5-1.2 9.1 0 21 .6 26.5 1.2 5.5 .7 15.2 2.4 21.5 3.7 6.3 1.4 17.6 4.5 25 7 7.4 2.4 19.8 7.6 27.5 11.3 7.7 3.8 18.7 10.1 24.5 13.9 5.8 3.9 16.3 11.9 23.4 17.9 9.1 7.5 16.3 14.7 23.9 23.8 6 7.2 14 17.7 17.9 23.5 3.8 5.8 10.1 16.8 13.8 24.5 3.8 7.7 8.1 17.5 9.7 21.8l2.8 7.8 9-.1c7.9 0 9.7 .3 14.4 2.7 3 1.6 7.2 4.8 9.3 7.3 2.1 2.5 4.5 6.3 5.3 8.5 1.2 3.5 1.4-6.4 1.4-75 .1-67.7-.1-79.9-1.4-85-.9-3.3-3-8.9-4.7-12.5-2.1-4.4-5.5-8.9-10.7-14.1-5.2-5.2-9.7-8.6-14.1-10.7-3.6-1.7-9.2-3.8-12.5-4.7-5.3-1.3-30.5-1.5-213-1.4ZM259 218.6c-3-.2-7.5-.1-10 .3-2.5 .4-6.7 1.9-9.4 3.2-2.8 1.3-7.3 4.7-10 7.4-2.8 2.8-6.1 7-7.3 9.5-1.3 2.5-2.7 7.3-3.3 10.8l-1 6.2 1 6.3c0.6 3.4 2 8.2 3.3 10.6 1.2 2.5 4.5 6.8 7.2 9.5 2.8 2.8 7 6.1 9.5 7.3 2.5 1.3 7.3 2.7 10.8 3.3l6.2 1 6.3-1c3.4-.6 8.2-2 10.7-3.3 2.5-1.2 6.8-4.5 9.5-7.3 2.8-2.7 6-7 7.2-9.5 1.3-2.4 2.7-7.2 3.3-10.6 .7-4.3 .7-8.3 0-12.5-.6-3.5-2-8.3-3.3-10.6-1.2-2.4-3.4-5.8-4.8-7.5-1.4-1.8-5-4.8-8-6.8-3-2-7-4.1-8.9-4.7-1.9-.6-6-1.3-9-1.6Z" style="fill:rgb(85,0,0);"/>
<path d="M255.5 .1c-177.5 0-207.8 .2-212.5 1.5-3 .8-8.4 2.8-12 4.6-4.4 2.1-8.9 5.5-14.1 10.7-5.2 5.2-8.6 9.7-10.7 14.1-1.7 3.6-3.8 9.2-4.7 12.5-1.3 5.3-1.5 30.6-1.5 212.5 0 181.9 .2 207.2 1.5 212.5 .9 3.3 3 8.9 4.7 12.5 2.1 4.4 5.5 8.9 10.7 14.1 5.2 5.2 9.7 8.6 14.1 10.7 3.6 1.7 9.2 3.8 12.5 4.7 5.3 1.3 30.6 1.5 212.5 1.5 181.9 0 207.2-.2 212.5-1.5 3.3-.9 8.9-3 12.5-4.7 4.4-2.1 8.9-5.5 14.1-10.7 5.2-5.2 8.6-9.7 10.7-14.1 1.7-3.6 3.8-9.2 4.7-12.5 1.3-5.1 1.5-17.3 1.4-84.5l0-78.5-1.8 4.5c-1.1 2.5-3.3 6.2-5 8.3-1.7 2-5.7 4.9-8.8 6.4-4.7 2.2-7.6 2.8-14.8 3.1l-9 .4-2.9 7.7c-1.6 4.2-5.1 12.6-7.9 18.6-2.8 6.1-7.5 15.1-10.6 20-3 5-8.9 13.5-13 19-4.1 5.5-13.6 16.1-21 23.5-7.5 7.5-18.1 16.9-23.6 21.1-5.5 4.1-14 10-19 13-4.9 3.1-13.5 7.6-19 10.1-5.5 2.6-13.4 6-17.5 7.6-4.1 1.6-12 4.3-17.5 6-5.5 1.7-13.4 3.8-17.5 4.7-4.1 .9-12.7 2.3-19 3.1-6.3 .8-18.9 1.4-28 1.4-9.1 0-21.7-.6-28-1.4-6.3-.8-14.9-2.2-19-3.1-4.1-.9-12-3-17.5-4.7-5.5-1.7-13.4-4.4-17.5-6-4.1-1.6-12-5-17.5-7.6-5.5-2.5-14-7-19-10.1-4.9-3-13.5-8.9-19-13-5.5-4.2-16.1-13.6-23.6-21.1-7.4-7.4-16.9-18-21-23.5-4.1-5.5-10-14-13-19-3.1-4.9-7.8-13.9-10.6-20-2.8-6-6.7-15.5-8.8-21-2-5.5-5.2-16-7.1-23.2-1.9-7.3-4.1-18.8-4.9-25.5-.8-6.8-1.5-19.7-1.5-28.8 0-9.1 .6-21.7 1.4-28 .8-6.3 2.2-14.9 3.1-19 .9-4.1 3-12 4.7-17.5 1.7-5.5 4.4-13.4 6-17.5 1.6-4.1 5-12 7.6-17.5 2.5-5.5 7-14 10.1-19 3-4.9 8.9-13.5 13-19 4.2-5.5 13.6-16.1 21.1-23.6 7.4-7.4 18-16.9 23.5-21 5.5-4.1 14.1-10 19-13 5-3.1 14-7.8 20-10.6 6.1-2.8 15.5-6.7 21-8.8 5.5-2 16-5.2 23.3-7.1 7.2-1.9 18.7-4.1 25.5-4.9 6.7-.8 19.6-1.5 28.7-1.5 9.1 0 22 .7 28.8 1.5 6.7 .8 18.2 3 25.5 4.9 7.2 1.9 17.7 5.1 23.2 7.1 5.5 2.1 15 6 21 8.8 6.1 2.8 15.1 7.5 20 10.6 5 3 13.5 8.9 19 13 5.5 4.1 16.1 13.6 23.5 21 7.5 7.5 16.9 18.1 21.1 23.6 4.1 5.5 10 14.1 13 19 3.1 5 7.8 14 10.6 20 2.8 6.1 6.3 14.4 7.9 18.6l2.9 7.7 9 .4c7.1 .3 10.1 .9 14.5 3 3.1 1.4 7.2 4.5 9.3 6.9 2 2.4 4.4 6.2 5.1 8.4 1.3 3.5 1.5-6 1.5-74.5 .1-67.3-.1-79.4-1.4-84.5-.9-3.3-3-8.9-4.7-12.5-2.1-4.4-5.5-8.9-10.7-14.1-5.2-5.2-9.7-8.6-14.1-10.7-3.6-1.7-9.2-3.8-12.5-4.7-5.3-1.3-30.5-1.5-213-1.4ZM257.5 219.3c-4.6-.2-9.7 .3-12 1-2.2 .7-6 2.4-8.5 3.9-2.5 1.4-6.3 4.5-8.4 6.9-2.2 2.4-5.1 6.9-6.5 9.9-2.2 4.7-2.6 6.9-2.6 15l0 9.5 3.2 6.5c1.9 3.9 5.1 8.3 8 11 2.6 2.4 7.3 5.6 10.3 7 4.7 2.1 6.9 2.5 15 2.5 8.1 0 10.3-.4 15-2.5 3-1.4 7.7-4.6 10.3-7 2.9-2.7 6.1-7.1 8-11l3.2-6.5 0-9.5 0-9.5-3.2-6.5c-1.9-3.9-5.1-8.3-8-11-2.6-2.4-7.3-5.5-10.3-6.9-4.1-1.8-7.6-2.6-13.5-2.8Z" style="fill:rgb(0,0,0);"/>
</g>
<g id="g" style="mix-blend-mode:screen;">
<path d="M255.5 .1c-177.5 0-207.8 .2-212.5 1.5-3 .8-8.4 2.8-12 4.6-4.4 2.1-8.9 5.5-14.1 10.7-5.2 5.2-8.6 9.7-10.7 14.1-1.7 3.6-3.8 9.2-4.7 12.5-1.3 5.3-1.5 30.6-1.5 212.5 0 181.9 .2 207.2 1.5 212.5 .9 3.3 3 8.9 4.7 12.5 2.1 4.4 5.5 8.9 10.7 14.1 5.2 5.2 9.7 8.6 14.1 10.7 3.6 1.7 9.2 3.8 12.5 4.7 5.3 1.3 30.6 1.5 212.5 1.5 181.9 0 207.2-.2 212.5-1.5 3.3-.9 8.9-3 12.5-4.7 4.4-2.1 8.9-5.5 14.1-10.7 5.2-5.2 8.6-9.7 10.7-14.1 1.7-3.6 3.8-9.2 4.7-12.5 1.3-5.3 1.5-30.6 1.5-212.5 0-181.9-.2-207.2-1.5-212.5-.9-3.3-3-8.9-4.7-12.5-2.1-4.4-5.5-8.9-10.7-14.1-5.2-5.2-9.7-8.6-14.1-10.7-3.6-1.7-9.2-3.8-12.5-4.7-5.3-1.3-30.5-1.5-213-1.4Z" style="fill:rgb(0,255,0);"/>
<path d="M255.5 .1c-177.5 0-207.8 .2-212.5 1.5-3 .8-8.4 2.8-12 4.6-4.4 2.1-8.9 5.5-14.1 10.7-5.2 5.2-8.6 9.7-10.7 14.1-1.7 3.6-3.8 9.2-4.7 12.5-1.3 5.3-1.5 30.6-1.5 212.5 0 181.9 .2 207.2 1.5 212.5 .9 3.3 3 8.9 4.7 12.5 2.1 4.4 5.5 8.9 10.7 14.1 5.2 5.2 9.7 8.6 14.1 10.7 3.6 1.7 9.2 3.8 12.5 4.7 5.3 1.3 30.6 1.5 212.5 1.5 181.9 0 207.2-.2 212.5-1.5 3.3-.9 8.9-3 12.5-4.7 4.4-2.1 8.9-5.5 14.1-10.7 5.2-5.2 8.6-9.7 10.7-14.1 1.7-3.6 3.8-9.2 4.7-12.5 1.3-5.2 1.5-17.4 1.4-86.5-.1-50-.4-79.1-1-76.7-.5 2-1.5 4.9-2.3 6.5-.7 1.5-3.4 4.6-6 7-2.5 2.3-6.3 4.9-8.3 5.9-2.2 .9-7.9 1.9-13.1 2.2l-9.4 .6-3.4 9c-2 5-5.8 13.5-8.5 19-2.8 5.5-7.4 13.8-10.2 18.5-2.8 4.7-9 13.7-13.8 20-4.7 6.3-12.8 15.8-18 21-5.2 5.2-13.2 12.6-17.9 16.3-4.7 3.8-12.8 9.7-18 13.2-5.2 3.5-13.3 8.4-18 11-4.7 2.5-12.5 6.5-17.5 8.7-4.9 2.2-13.5 5.5-19 7.3-5.5 1.8-15.4 4.5-22 6-6.6 1.4-18.1 3.3-25.5 4.1-7.4 .7-18.2 1.4-24 1.4-5.8 0-16.6-.7-24-1.4-7.4-.8-18.9-2.7-25.5-4.1-6.6-1.5-16.5-4.2-22-6-5.5-1.8-14-5.1-19-7.3-4.9-2.2-12.8-6.2-17.5-8.7-4.7-2.6-12.8-7.5-18-11-5.2-3.5-13.3-9.4-18-13.2-4.7-3.7-12.7-11.1-17.9-16.3-5.2-5.2-13.3-14.7-18-21-4.8-6.3-11-15.3-13.8-20-2.8-4.7-7.4-13-10.2-18.5-2.7-5.5-6.5-14-8.4-19-2-4.9-4.7-13.3-6.1-18.5-1.4-5.2-3.3-12.9-4.1-17-.9-4.1-2.2-13.6-3-21-.8-7.4-1.5-18.2-1.5-24 0-5.8 .7-16.6 1.4-24 .8-7.4 2.7-18.9 4.1-25.5 1.5-6.6 4.2-16.5 6-22 1.8-5.5 5.1-14 7.3-19 2.2-4.9 6.2-12.8 8.7-17.5 2.6-4.7 7.5-12.8 11-18 3.5-5.2 9.4-13.3 13.2-18 3.7-4.7 11.1-12.7 16.3-17.9 5.2-5.2 14.7-13.3 21-18 6.3-4.8 15.3-11 20-13.8 4.7-2.8 13-7.4 18.5-10.2 5.5-2.7 14.1-6.5 19-8.4 5-2 13.3-4.7 18.5-6.1 5.2-1.4 12.9-3.3 17-4.1 4.1-.9 13.6-2.2 21-3 7.4-.8 18.2-1.5 24-1.5 5.8 0 16.6 .7 24 1.5 7.4 .8 16.9 2.1 21 3 4.1 .8 11.8 2.7 17 4.1 5.2 1.4 13.6 4.1 18.5 6.1 5 1.9 13.7 5.8 19.5 8.7 5.8 2.9 14.6 7.8 19.5 10.8 5 3.1 13.3 8.9 18.5 12.9 5.2 4 12.6 10 16.3 13.3 3.8 3.4 10.3 10.2 14.6 15.1 4.3 5 10.5 12.6 13.7 17 3.3 4.4 8.3 11.8 11.1 16.5 2.8 4.7 7.4 13 10.2 18.5 2.7 5.5 6.5 14.1 8.5 19l3.4 9 9.4 .6c6.6 .3 10.6 1.1 13.8 2.7 2.5 1.2 6.4 4.1 8.8 6.4 2.7 2.7 5 6.3 6.2 9.8l1.9 5.5 .1-80c0-68.5-.2-80.9-1.5-86-.9-3.3-3-8.9-4.7-12.5-2.1-4.4-5.5-8.9-10.7-14.1-5.2-5.2-9.7-8.6-14.1-10.7-3.6-1.7-9.2-3.8-12.5-4.7-5.3-1.3-30.5-1.5-213-1.4ZM113 114c-.3 0-2.6 2.1-5.1 4.7-2.5 2.7-7.3 8.2-10.5 12.3-3.3 4.1-8.2 11.1-11 15.5-2.8 4.4-6.5 10.5-8.2 13.5-1.7 3-4.7 9.3-6.7 14-2 4.7-5 12.1-6.5 16.5-1.6 4.4-3.8 11.8-5 16.5-1.2 4.7-2.8 12.3-3.5 17-.8 4.7-1.1 8.8-.7 9.2 .4 .3 31.5 4 69.2 8.3 37.7 4.2 69.1 7.5 69.9 7.3 .7-.2 2.2-3.5 3.2-7.8 1.1-4.1 3.6-10.4 5.5-14 2-3.6 5-8 6.7-9.8l3.2-3.3-50-49.9c-27.5-27.5-50.2-50-50.5-50ZM257.5 218.3c-6.7-.3-10.3 .1-14.1 1.4-2.7 1-7 3.2-9.3 4.8-2.4 1.7-5.7 4.6-7.4 6.5-1.7 1.9-4.2 6-5.6 9-2.3 4.8-2.6 6.8-2.6 16 0 9.2 .3 11.2 2.6 16 1.4 3 4.6 7.7 7 10.4 2.7 3 6.9 6 10.9 8l6.5 3.1 10.5 0 10.5 0 6.5-3.1c4-2 8.2-5 10.9-8 2.4-2.7 5.6-7.4 7-10.4 2.3-4.8 2.6-6.8 2.6-16l0-10.5-3.1-6.5c-2-4-5-8.2-8-10.9-2.7-2.4-7.4-5.5-10.4-6.9-4.3-2.1-7.4-2.7-14.5-2.9ZM386.8 328l-58.3 0 35.2 35.2 35.2 35.3 2.7-2.5c1.4-1.4 6.3-7 10.8-12.5 4.5-5.5 10.5-13.6 13.3-18 2.8-4.4 6.4-10.5 8.1-13.5 1.7-3 4.9-9.7 7.1-14.7l4.1-9.3-58.2 0Z" style="fill:rgb(0,170,0);"/>
<path d="M255.5 .1c-177.5 0-207.8 .2-212.5 1.5-3 .8-8.4 2.8-12 4.6-4.4 2.1-8.9 5.5-14.1 10.7-5.2 5.2-8.6 9.7-10.7 14.1-1.7 3.6-3.8 9.2-4.7 12.5-1.3 5.3-1.5 30.6-1.5 212.5 0 181.9 .2 207.2 1.5 212.5 .9 3.3 3 8.9 4.7 12.5 2.1 4.4 5.5 8.9 10.7 14.1 5.2 5.2 9.7 8.6 14.1 10.7 3.6 1.7 9.2 3.8 12.5 4.7 5.3 1.3 30.6 1.5 212.5 1.5 181.9 0 207.2-.2 212.5-1.5 3.3-.9 8.9-3 12.5-4.7 4.4-2.1 8.9-5.5 14.1-10.7 5.2-5.2 8.6-9.7 10.7-14.1 1.7-3.6 3.8-9.2 4.7-12.5 1.3-5.1 1.5-17.3 1.4-85.5 0-68.8-.2-78.9-1.4-75-.8 2.5-3.1 6.5-5.3 9-2.1 2.5-6.3 5.7-9.3 7.3-4.7 2.4-6.5 2.7-14.4 2.7l-9-.1-2.9 7.8c-1.5 4.3-5.4 13.2-8.5 19.8-3.2 6.6-8.1 15.8-11.1 20.5-3 4.7-8.6 12.8-12.6 18-3.9 5.2-10.5 13.2-14.5 17.7-4.1 4.5-11 11.2-15.4 15-4.4 3.8-11.6 9.6-16 12.9-4.4 3.3-11.8 8.4-16.5 11.4-4.7 3-14 8-20.7 11.2-6.8 3.2-17.4 7.5-23.5 9.7-6.2 2.1-16.2 5-22.3 6.4-6 1.5-16.4 3.3-23 4.2-7 .9-19.3 1.6-29.5 1.6-10.2 0-22.5-.7-29.5-1.6-6.6-.9-16.9-2.7-23-4.2-6-1.4-16.1-4.3-22.2-6.4-6.2-2.2-16.8-6.5-23.5-9.7-6.8-3.2-16.1-8.2-20.8-11.2-4.7-3-12.1-8.1-16.5-11.4-4.4-3.3-11.6-9.1-16-12.9-4.4-3.8-11.3-10.5-15.4-15-4-4.5-10.6-12.5-14.5-17.7-4-5.2-9.6-13.3-12.6-18-3-4.7-8-14-11.2-20.7-3.2-6.8-7.5-17.4-9.7-23.5-2.1-6.2-5-16.2-6.4-22.3-1.5-6-3.3-16.4-4.2-23-.9-7-1.6-19.3-1.6-29.5 0-10.2 .7-22.5 1.6-29.5 .9-6.6 2.7-16.9 4.2-23 1.4-6 4.3-16.1 6.4-22.2 2.2-6.2 6.5-16.8 9.7-23.5 3.2-6.8 8.2-16.1 11.2-20.8 3-4.7 8.1-12.1 11.4-16.5 3.3-4.4 9.1-11.6 12.9-16 3.8-4.4 10.5-11.3 15-15.4 4.5-4 12.5-10.6 17.7-14.5 5.2-4 13.3-9.6 18-12.6 4.7-3 14-8 20.8-11.2 6.7-3.2 17.3-7.5 23.5-9.7 6.1-2.1 16.2-5 22.2-6.4 6.1-1.5 16.4-3.3 23-4.2 7-.9 19.3-1.6 29.5-1.6 10.2 0 22.5 .7 29.5 1.6 6.6 .9 17 2.7 23 4.2 6.1 1.4 16.1 4.3 22.3 6.4 6.1 2.2 16.7 6.5 23.5 9.7 6.7 3.2 16 8.2 20.7 11.2 4.7 3 12.8 8.6 18 12.6 5.2 3.9 13.2 10.5 17.7 14.5 4.5 4.1 11.2 11 15 15.4 3.8 4.4 9.6 11.6 12.9 16 3.3 4.4 8.4 11.8 11.4 16.5 3 4.7 7.9 13.9 11.1 20.5 3.1 6.6 7 15.5 8.5 19.8l2.9 7.8 9-.1c7.9 0 9.7 .3 14.4 2.7 3 1.6 7.2 4.8 9.3 7.3 2.1 2.5 4.5 6.3 5.3 8.5 1.2 3.5 1.4-6.4 1.4-75 .1-67.7-.1-79.9-1.4-85-.9-3.3-3-8.9-4.7-12.5-2.1-4.4-5.5-8.9-10.7-14.1-5.2-5.2-9.7-8.6-14.1-10.7-3.6-1.7-9.2-3.8-12.5-4.7-5.3-1.3-30.5-1.5-213-1.4ZM255 218.1c-1.4 .1-4.5 .5-7 1-2.5 .5-6.3 1.8-8.5 2.8-2.2 1.1-6.2 4-9 6.4-2.7 2.4-6.2 6.8-7.7 9.8-1.6 3-3.3 8.1-3.9 11.4-.8 4.4-.8 7.7 0 12.5 .6 3.6 2 8.3 3 10.5 1.1 2.2 4 6.3 6.4 9 2.4 2.8 6.8 6.2 9.8 7.7 3 1.6 8.1 3.3 11.4 3.9l6 1.1 6.5-1.1c3.6-.6 8.9-2.3 11.9-3.9 3-1.5 7.4-4.9 9.8-7.7 2.4-2.7 5.3-6.8 6.4-9 1-2.2 2.4-6.9 3-10.5 .8-4.8 .8-8.1 0-12.5-.6-3.3-2.3-8.4-3.9-11.4-1.5-3-4.9-7.4-7.7-9.8-2.7-2.4-6.8-5.3-9-6.3-2.2-1.1-6.5-2.4-9.5-3-3-.6-6.6-1-8-.9Z" style="fill:rgb(0,85,0);"/>
<path d="M255.5 .1c-177.5 0-207.8 .2-212.5 1.5-3 .8-8.4 2.8-12 4.6-4.4 2.1-8.9 5.5-14.1 10.7-5.2 5.2-8.6 9.7-10.7 14.1-1.7 3.6-3.8 9.2-4.7 12.5-1.3 5.3-1.5 30.6-1.5 212.5 0 181.9 .2 207.2 1.5 212.5 .9 3.3 3 8.9 4.7 12.5 2.1 4.4 5.5 8.9 10.7 14.1 5.2 5.2 9.7 8.6 14.1 10.7 3.6 1.7 9.2 3.8 12.5 4.7 5.3 1.3 30.6 1.5 212.5 1.5 181.9 0 207.2-.2 212.5-1.5 3.3-.9 8.9-3 12.5-4.7 4.4-2.1 8.9-5.5 14.1-10.7 5.2-5.2 8.6-9.7 10.7-14.1 1.7-3.6 3.8-9.2 4.7-12.5 1.3-5.1 1.5-17.2 1.4-84.5 0-68.5-.2-78-1.5-74.5-.7 2.2-3.1 6-5.1 8.4-2.1 2.4-6 5.5-8.8 6.9-4 2-7 2.6-14.5 3l-9.5 .4-2.9 7.7c-1.6 4.2-5.1 12.6-7.9 18.6-2.8 6.1-7.5 15.1-10.6 20-3 5-8.9 13.5-13 19-4.1 5.5-13.6 16.1-21 23.5-7.5 7.5-18.1 16.9-23.6 21.1-5.5 4.1-14 10-19 13-4.9 3.1-13.5 7.6-19 10.1-5.5 2.6-13.4 6-17.5 7.6-4.1 1.6-12 4.4-17.5 6-5.5 1.7-13.4 3.8-17.5 4.7-4.1 .9-12.7 2.3-19 3.1-6.3 .8-18.9 1.4-28 1.4-9.1 0-21.7-.6-28-1.4-6.3-.8-14.9-2.2-19-3.1-4.1-.9-12-3-17.5-4.6-5.5-1.7-14.7-5-20.5-7.4-5.8-2.3-14.5-6.2-19.5-8.6-4.9-2.5-13.5-7.4-19-11-5.5-3.6-13.4-9.3-17.5-12.5-4.1-3.3-11.7-10-16.9-15-5.2-4.9-13-13.2-17.3-18.4-4.4-5.2-11.3-14.4-15.4-20.5-4-6-9.4-15.3-12-20.5-2.6-5.2-6.6-14.2-8.9-20-2.4-5.8-5.7-15-7.3-20.5-1.7-5.5-3.8-13.4-4.7-17.5-.9-4.1-2.3-12.7-3.1-19-.8-6.3-1.4-18.9-1.4-28 0-9.1 .6-21.7 1.4-28 .8-6.3 2.2-14.9 3.1-19 .9-4.1 3-12 4.6-17.5 1.7-5.5 5-14.7 7.4-20.5 2.3-5.8 6.2-14.5 8.6-19.5 2.5-4.9 7.4-13.5 11-19 3.6-5.5 9.3-13.4 12.5-17.5 3.3-4.1 10-11.7 15-16.9 4.9-5.2 13.2-13 18.4-17.3 5.2-4.4 14.5-11.3 20.5-15.4 6.1-4 15.3-9.4 20.5-12 5.2-2.6 14.2-6.6 20-8.9 5.8-2.4 15-5.7 20.5-7.3 5.5-1.7 13.4-3.8 17.5-4.7 4.1-.9 12.7-2.3 19-3.1 6.3-.8 18.9-1.4 28-1.4 9.1 0 21.7 .6 28 1.4 6.3 .8 14.9 2.2 19 3.1 4.1 .9 12 3 17.5 4.7 5.5 1.6 14.7 4.9 20.5 7.3 5.8 2.3 14.8 6.3 20 8.9 5.2 2.6 14.5 8 20.5 12 6.1 4.1 15.3 11 20.5 15.3 5.2 4.4 13.9 12.7 19.4 18.4 5.4 5.7 13 14.7 17 19.9 3.9 5.2 9.7 13.6 12.7 18.5 3.1 5 7.8 14 10.6 20 2.8 6.1 6.3 14.4 7.9 18.6l2.9 7.7 9.5 .4c7.5 .4 10.5 1 14.5 3 2.8 1.4 6.7 4.5 8.8 6.9 2 2.4 4.4 6.2 5.1 8.4 1.3 3.5 1.5-6 1.5-74.5 .1-67.3-.1-79.4-1.4-84.5-.9-3.3-3-8.9-4.7-12.5-2.1-4.4-5.5-8.9-10.7-14.1-5.2-5.2-9.7-8.6-14.1-10.7-3.6-1.7-9.2-3.8-12.5-4.7-5.3-1.3-30.5-1.5-213-1.4ZM257.5 219.3c-5.8-.3-9.4 .1-13.1 1.4-2.7 1-7 3.2-9.3 4.8-2.4 1.7-5.7 4.6-7.4 6.5-1.7 1.9-4.2 6-5.6 9-2.2 4.7-2.6 6.9-2.6 15 0 8.2 .4 10.3 2.6 15 1.4 3 4.6 7.7 7 10.4 2.7 3 6.9 6 10.9 8l6.5 3.1 9.5 0 9.5 0 6.5-3.1c4-2 8.2-5 10.9-8 2.4-2.7 5.6-7.4 7-10.4 2.2-4.7 2.6-6.8 2.6-15l0-9.5-3.1-6.5c-2-4-5-8.2-8-10.9-2.7-2.4-7.4-5.5-10.4-6.9-4.1-1.9-7.5-2.7-13.5-2.9Z" style="fill:rgb(0,0,0);"/>
</g>
<g id="b" style="mix-blend-mode:screen;">
<path d="M255.5 .1c-177.5 0-207.8 .2-212.5 1.5-3 .8-8.4 2.8-12 4.6-4.4 2.1-8.9 5.5-14.1 10.7-5.2 5.2-8.6 9.7-10.7 14.1-1.7 3.6-3.8 9.2-4.7 12.5-1.3 5.3-1.5 30.6-1.5 212.5 0 181.9 .2 207.2 1.5 212.5 .9 3.3 3 8.9 4.7 12.5 2.1 4.4 5.5 8.9 10.7 14.1 5.2 5.2 9.7 8.6 14.1 10.7 3.6 1.7 9.2 3.8 12.5 4.7 5.3 1.3 30.6 1.5 212.5 1.5 181.9 0 207.2-.2 212.5-1.5 3.3-.9 8.9-3 12.5-4.7 4.4-2.1 8.9-5.5 14.1-10.7 5.2-5.2 8.6-9.7 10.7-14.1 1.7-3.6 3.8-9.2 4.7-12.5 1.3-5.3 1.5-30.6 1.5-212.5 0-181.9-.2-207.2-1.5-212.5-.9-3.3-3-8.9-4.7-12.5-2.1-4.4-5.5-8.9-10.7-14.1-5.2-5.2-9.7-8.6-14.1-10.7-3.6-1.7-9.2-3.8-12.5-4.7-5.3-1.3-30.5-1.5-213-1.4Z" style="fill:rgb(0,0,255);"/>
<path d="M255.5 .1c-177.5 0-207.8 .2-212.5 1.5-3 .8-8.4 2.8-12 4.6-4.4 2.1-8.9 5.5-14.1 10.7-5.2 5.2-8.6 9.7-10.7 14.1-1.7 3.6-3.8 9.2-4.7 12.5-1.3 5.3-1.5 30.6-1.5 212.5 0 181.9 .2 207.2 1.5 212.5 .9 3.3 3 8.9 4.7 12.5 2.1 4.4 5.5 8.9 10.7 14.1 5.2 5.2 9.7 8.6 14.1 10.7 3.6 1.7 9.2 3.8 12.5 4.7 5.3 1.3 30.6 1.5 212.5 1.5 181.9 0 207.2-.2 212.5-1.5 3.3-.9 8.9-3 12.5-4.7 4.4-2.1 8.9-5.5 14.1-10.7 5.2-5.2 8.6-9.7 10.7-14.1 1.7-3.6 3.8-9.2 4.7-12.5 1.3-5.2 1.5-17.4 1.4-86.5-.1-50-.4-79.1-1-76.7-.5 2-1.5 4.9-2.3 6.5-.7 1.5-3.8 4.9-6.7 7.5-3.6 3.2-7.1 5.3-10.4 6.3-4.2 1.2-19.2 1.4-88.7 1.4l-83.8 0-4.7-2.4c-2.7-1.3-6.2-3.9-8-5.8-1.8-1.8-4.2-5.5-5.4-8.3l-2.1-5 .1-49.5 .2-49.5 2-4.5c1.1-2.5 3.7-6.2 5.7-8.3 2-2.1 5.5-4.8 7.7-6l4-2.2 84-.3c72.5-.2 84.7 0 89.3 1.3 3.7 1.1 6.8 3 10.8 6.8 4.2 3.9 6 6.6 7.4 10.7l1.9 5.5 .1-80c0-68.5-.2-80.9-1.5-86-.9-3.3-3-8.9-4.7-12.5-2.1-4.4-5.5-8.9-10.7-14.1-5.2-5.2-9.7-8.6-14.1-10.7-3.6-1.7-9.2-3.8-12.5-4.7-5.3-1.3-30.5-1.5-213-1.4Z" style="fill:rgb(0,0,170);"/>
<path d="M255.5 .1c-177.5 0-207.8 .2-212.5 1.5-3 .8-8.4 2.8-12 4.6-4.4 2.1-8.9 5.5-14.1 10.7-5.2 5.2-8.6 9.7-10.7 14.1-1.7 3.6-3.8 9.2-4.7 12.5-1.3 5.3-1.5 30.6-1.5 212.5 0 181.9 .2 207.2 1.5 212.5 .9 3.3 3 8.9 4.7 12.5 2.1 4.4 5.5 8.9 10.7 14.1 5.2 5.2 9.7 8.6 14.1 10.7 3.6 1.7 9.2 3.8 12.5 4.7 5.3 1.3 30.6 1.5 212.5 1.5 181.9 0 207.2-.2 212.5-1.5 3.3-.9 8.9-3 12.5-4.7 4.4-2.1 8.9-5.5 14.1-10.7 5.2-5.2 8.6-9.7 10.7-14.1 1.7-3.6 3.8-9.2 4.7-12.5 1.3-5.1 1.5-17.3 1.4-85.5 0-68.8-.2-78.9-1.4-75-.8 2.5-3.3 6.7-5.7 9.4-2.4 2.7-6.1 5.8-8.3 7-3 1.5-6.6 2.2-14.4 2.6l-10.4 .5-3.7 9c-2 5-6 13.7-8.9 19.5-2.9 5.8-7.6 14.3-10.4 19-2.9 4.7-8.5 13-12.6 18.5-4.1 5.5-12 14.7-17.5 20.4-5.6 5.7-13.7 13.2-18.1 16.8-4.4 3.6-12.7 9.6-18.5 13.5-5.8 3.8-17.9 10.7-27 15.2-9.1 4.5-20.8 9.6-26 11.4-5.2 1.7-14 4.2-19.5 5.6-5.5 1.3-13.1 2.9-17 3.5-3.8 .6-11.7 1.5-17.5 2.1-5.8 .6-14.3 1-19 1-4.7 0-13.2-.4-19-1-5.8-.6-13.6-1.5-17.5-2.1-3.8-.6-11.5-2.2-17-3.5-5.5-1.4-14-3.8-19-5.4-4.9-1.7-15.5-6.2-23.5-10.1-8-3.9-18.3-9.4-23-12.2-4.7-2.8-13-8.5-18.5-12.6-5.5-4.1-14.7-12-20.4-17.5-5.7-5.6-13.2-13.7-16.8-18.1-3.6-4.4-9.6-12.7-13.5-18.5-3.8-5.8-10.7-17.9-15.2-27-4.5-9.1-9.6-20.8-11.4-26-1.7-5.2-4.2-14-5.6-19.5-1.3-5.5-2.9-13.1-3.5-17-.6-3.8-1.5-11.7-2.1-17.5-.6-5.8-1-14.3-1-19 0-4.7 .4-13.2 1-19 .6-5.8 1.5-13.6 2.1-17.5 .6-3.8 2.2-11.5 3.5-17 1.4-5.5 3.9-14.3 5.6-19.5 1.8-5.2 6.9-16.9 11.4-26 4.5-9.1 11.4-21.2 15.2-27 3.9-5.8 9.9-14.1 13.5-18.5 3.6-4.4 11.1-12.5 16.8-18.1 5.7-5.5 14.9-13.4 20.4-17.5 5.5-4.1 13.8-9.8 18.5-12.6 4.7-2.8 15-8.3 23-12.2 8-3.9 18.6-8.4 23.5-10.1 5-1.6 13.5-4 19-5.4 5.5-1.3 13.2-2.9 17-3.5 3.9-.6 11.7-1.5 17.5-2.1 5.8-.6 14.3-1 19-1 4.7 0 13.2 .4 19 1 5.8 .6 13.7 1.5 17.5 2.1 3.9 .6 11.5 2.2 17 3.5 5.5 1.4 14.3 3.9 19.5 5.6 5.2 1.8 16.9 6.9 26 11.4 9.1 4.5 21.2 11.4 27 15.2 5.8 3.9 14.1 9.9 18.5 13.5 4.4 3.6 12.5 11.1 18.1 16.8 5.5 5.7 13.4 14.9 17.5 20.4 4.1 5.5 9.7 13.8 12.6 18.5 2.8 4.7 7.5 13.2 10.4 19 2.9 5.8 6.9 14.6 8.9 19.5l3.7 9 10.4 .5c7.8 .4 11.4 1.1 14.4 2.6 2.2 1.2 5.9 4.3 8.3 7 2.3 2.7 4.9 6.7 5.7 8.9 1.2 3.5 1.4-6.4 1.4-75 .1-67.7-.1-79.9-1.4-85-.9-3.3-3-8.9-4.7-12.5-2.1-4.4-5.5-8.9-10.7-14.1-5.2-5.2-9.7-8.6-14.1-10.7-3.6-1.7-9.2-3.8-12.5-4.7-5.3-1.3-30.5-1.5-213-1.4ZM111.8 113c-.5 0-3 2.6-5.6 5.8-2.6 3.1-7.1 8.6-9.8 12.2-2.8 3.6-7.8 10.6-11.1 15.5-3.3 5-8.3 13.5-11.1 19-2.7 5.5-6.6 14.3-8.5 19.5-2 5.2-4.7 14-6.1 19.5-1.4 5.5-3.2 14.5-3.9 20-.8 5.5-1.4 10.1-1.3 10.1 0 .1 32.1 3.5 71.1 7.7 39.1 4.2 71.1 7.5 71.2 7.4 .1-.1 1.1-3.6 2.1-7.7 1.1-4.1 3-9.5 4.2-12 1.2-2.5 4.1-7.1 6.4-10.3l4.1-5.7-7.5-7.8c-4.1-4.2-26.8-26.9-50.5-50.5-23.6-23.5-43.3-42.7-43.7-42.7ZM255.5 218.1c-4.4 .1-9.8 .7-12 1.3-2.2 .7-5.8 2.4-8 3.8-2.2 1.4-5.6 4.3-7.6 6.4-1.9 2.2-4.4 5.3-5.4 6.9-1 1.7-2.4 5-3.1 7.5-.8 2.5-1.4 7.9-1.4 12 0 4.1 .6 9.5 1.4 12 .7 2.5 2.5 6.3 3.9 8.5 1.3 2.2 4.2 5.6 6.3 7.6 2.2 1.9 5.3 4.4 6.9 5.4 1.7 1 5 2.4 7.5 3.1 2.5 .8 7.9 1.4 12 1.4 4.1 0 9.5-.6 12-1.4 2.5-.7 5.9-2.1 7.5-3.1 1.7-1 4.7-3.5 6.9-5.4 2.1-2 5-5.4 6.3-7.6 1.4-2.2 3.2-6 3.9-8.5 .8-2.5 1.4-7.9 1.4-12 0-4.1-.6-9.5-1.4-12-.7-2.5-2.5-6.3-3.9-8.5-1.3-2.2-4.2-5.6-6.3-7.6-2.2-1.9-5.2-4.4-6.9-5.4-1.6-1-5-2.4-7.5-3.1-2.5-.8-8.1-1.3-12.5-1.3ZM386.8 327c-31.8 0-57.8 .3-57.8 .8-.1 .4 15.8 16.6 35.2 36 19.4 19.4 35.5 35.3 35.8 35.3 .3 0 2.8-2.6 5.5-5.8 2.8-3.2 7.3-8.7 10.1-12.3 2.8-3.6 7.8-10.5 11.1-15.5 3.3-4.9 8.1-13 10.6-18 2.5-4.9 5.5-11.2 6.6-14 1.1-2.7 1.7-5.4 1.3-5.8-.4-.4-26.7-.7-58.4-.7Z" style="fill:rgb(0,0,85);"/>
<path d="M255.5 .1c-177.5 0-207.8 .2-212.5 1.5-3 .8-8.4 2.8-12 4.6-4.4 2.1-8.9 5.5-14.1 10.7-5.2 5.2-8.6 9.7-10.7 14.1-1.7 3.6-3.8 9.2-4.7 12.5-1.3 5.3-1.5 30.6-1.5 212.5 0 181.9 .2 207.2 1.5 212.5 .9 3.3 3 8.9 4.7 12.5 2.1 4.4 5.5 8.9 10.7 14.1 5.2 5.2 9.7 8.6 14.1 10.7 3.6 1.7 9.2 3.8 12.5 4.7 5.3 1.3 30.6 1.5 212.5 1.5 181.9 0 207.2-.2 212.5-1.5 3.3-.9 8.9-3 12.5-4.7 4.4-2.1 8.9-5.5 14.1-10.7 5.2-5.2 8.6-9.7 10.7-14.1 1.7-3.6 3.8-9.2 4.7-12.5 1.3-5.1 1.5-17.2 1.4-84.5 0-68.2-.2-78-1.4-74.5-.8 2.2-3.2 6-5.3 8.5-2.1 2.5-6.1 5.6-8.8 6.9-3.8 1.9-7.1 2.6-14.6 3l-9.7 .6-2.7 7.5c-1.4 4.1-5.7 13.8-9.4 21.5-3.8 7.7-9.8 18.5-13.5 24-3.7 5.5-9.5 13.4-12.9 17.5-3.3 4.1-9.7 11.3-14.1 15.9-4.4 4.6-12.4 12-17.8 16.5-5.4 4.4-14.4 11.2-20 14.9-5.6 3.8-16.5 9.9-24.2 13.7-7.7 3.7-18.7 8.5-24.5 10.5-5.8 2.1-16.6 5.3-24 7.2-7.4 1.8-19.1 4-26 4.8-6.9 .8-19 1.5-27 1.5-8 0-20.1-.7-27-1.5-6.9-.8-18.6-3-26-4.8-7.4-1.9-18.2-5.1-24-7.2-5.8-2-16.8-6.8-24.5-10.5-7.7-3.8-18.6-9.9-24.2-13.7-5.6-3.7-14.6-10.5-20-14.9-5.4-4.5-13.4-11.9-17.8-16.5-4.4-4.6-10.8-11.8-14.1-15.9-3.4-4.1-9.2-12-12.9-17.5-3.7-5.5-9.7-16.3-13.5-24-3.7-7.7-8.5-18.7-10.5-24.5-2.1-5.8-5.3-16.6-7.2-24-1.8-7.4-4-19.1-4.8-26-.8-6.9-1.5-19-1.5-27 0-8 .7-20.1 1.5-27 .8-6.9 3-18.6 4.8-26 1.9-7.4 5.1-18.2 7.2-24 2-5.8 6.8-16.8 10.5-24.5 3.8-7.7 9.8-18.5 13.5-24 3.7-5.5 9.5-13.4 12.9-17.5 3.3-4.1 9.7-11.3 14.1-15.9 4.4-4.6 12.4-12 17.8-16.5 5.4-4.4 14.4-11.2 20-14.9 5.6-3.8 16.5-9.9 24.2-13.7 7.7-3.7 18.7-8.5 24.5-10.5 5.8-2.1 16.6-5.3 24-7.2 7.4-1.8 19.1-4 26-4.8 6.9-.8 19-1.5 27-1.5 8 0 20.1 .7 27 1.5 6.9 .8 18.6 3 26 4.8 7.4 1.9 18.2 5.1 24 7.2 5.8 2 16.8 6.8 24.5 10.5 7.7 3.8 18.5 9.8 24 13.5 5.5 3.7 13.4 9.5 17.5 12.9 4.1 3.3 11.3 9.7 15.9 14.1 4.6 4.4 12 12.4 16.5 17.8 4.4 5.4 11.2 14.4 14.9 20 3.8 5.6 9.9 16.5 13.7 24.2 3.7 7.7 8.1 17.5 9.7 21.8l2.8 7.8 6.8-.1c3.7 0 8.8 .4 11.5 1 2.6 .5 6.6 2.3 9 4 2.3 1.6 5.4 4.7 7 6.7 1.5 2.1 3.2 5.3 3.9 7.3 1 2.8 1.2-12.4 1.3-75 0-67.2-.2-79.4-1.5-84.5-.9-3.3-3-8.9-4.7-12.5-2.1-4.4-5.5-8.9-10.7-14.1-5.2-5.2-9.7-8.6-14.1-10.7-3.6-1.7-9.2-3.8-12.5-4.7-5.3-1.3-30.5-1.5-213-1.4ZM117.5 118.8l-5-4.7-7 8c-3.8 4.4-9.6 11.5-12.7 15.7-3.2 4.2-8.4 12.4-11.7 18.2-3.3 5.8-7.5 14.1-9.4 18.5-1.9 4.4-5 12.7-7 18.5-1.9 5.8-4.4 15-5.5 20.5-1.1 5.5-2.3 12.1-2.6 14.8l-.6 4.7 3.3 .5c1.7 .2 32 3.6 67.2 7.5 35.2 3.9 65.1 7.3 66.5 7.6l2.5 .5 1.6-6.8c0.9-3.7 2.8-9.3 4.3-12.3 1.4-3 4.5-7.9 6.9-10.9l4.2-5.4-45-45.1c-24.8-24.8-47.3-47.2-50-49.8ZM257.5 219.3c-5.4-.2-10.6 .2-13 1-2.2 .8-5.8 2.5-8 3.9-2.2 1.4-5.8 4.5-8 6.9-2.3 2.4-5.2 6.7-6.5 9.4-2.2 4.3-2.5 6.4-2.5 15.5l0 10.5 3 5.9c1.7 3.2 5.3 7.9 8 10.5 2.8 2.6 7.3 5.8 10 7.2 4.3 2.1 6.4 2.4 15.5 2.4 9.1 0 11.2-.3 15.5-2.4 2.8-1.4 7.3-4.6 10-7.2 2.8-2.6 6.4-7.3 8-10.5l3-5.9 0-10.5c0-9.1-.3-11.2-2.4-15.5-1.4-2.7-4.6-7.2-7.2-10-2.6-2.7-7.3-6.3-10.5-8-5.1-2.5-7.2-3-14.9-3.2ZM387 328l-57 0 3.2 3.8c1.8 2 17.3 17.8 34.5 35l31.3 31.2 5.3-5.7c2.8-3.1 7.4-8.4 10.1-11.7 2.6-3.4 6.5-8.6 8.6-11.6 2-3 6-9.5 8.8-14.5 2.8-4.9 6.7-12.7 8.6-17.2 2-4.6 3.6-8.5 3.6-8.8 0-.3-25.6-.5-57-.5Z" style="fill:rgb(0,0,0);"/>
</g>
</g>
</defs>
<use xlink:href="#rgb"/>
</svg>